<?xml version="1.0" encoding="utf-8"?>
<!-- Generator: Adobe Illustrator 24.1.2, SVG Export Plug-In . SVG Version: 6.00 Build 0)  -->
<svg version="1.1" id="Layer_1" xmlns="http://www.w3.org/2000/svg" xmlns:xlink="http://www.w3.org/1999/xlink" x="0px" y="0px"
	 viewBox="0 0 100 100" style="enable-background:new 0 0 100 100;" xml:space="preserve">
<style type="text/css">
	.st0{fill:#4A7C59;}
	.st1{opacity:0.7;fill:#6B9D7A;enable-background:new    ;}
</style>
<path class="st0" d="M50,10c13.3,13.3,20,28.3,20,45c0,13.3-6.7,23.3-20,30c-13.3-6.7-20-16.7-20-30C30,38.3,36.7,23.3,50,10z"/>
<path class="st1" d="M50,10c-6.7,10-10,25-10,45c0,10,3.3,17.7,10,23c-3.3-2-6-4.7-8-8c-4.7-5.3-7-10.3-7-15C35,38.3,40,23.3,50,10z
	"/>
</svg>
