<?xml version="1.0" encoding="utf-8"?>
<!-- Generator: Adobe Illustrator 24.1.2, SVG Export Plug-In . SVG Version: 6.00 Build 0)  -->
<svg version="1.1" id="Layer_1" xmlns="http://www.w3.org/2000/svg" xmlns:xlink="http://www.w3.org/1999/xlink" x="0px" y="0px"
	 viewBox="0 0 512 512" style="enable-background:new 0 0 512 512;" xml:space="preserve">
<style type="text/css">
	.st0{fill:#F5F3ED;}
	.st1{fill:#4A7C59;}
	.st2{opacity:0.7;fill:#6B9D7A;enable-background:new    ;}
</style>
<path class="st0" d="M80,0h352c44.2,0,80,35.8,80,80v352c0,44.2-35.8,80-80,80H80c-44.2,0-80-35.8-80-80V80C0,35.8,35.8,0,80,0z"/>
<path class="st1" d="M256,52c72.5,72.5,108.8,154.1,108.8,244.8c0,72.5-36.3,126.9-108.8,163.2c-72.5-36.3-108.8-90.7-108.8-163.2
	C147.2,206.1,183.5,124.5,256,52z"/>
<path class="st2" d="M256,52c-36.3,54.4-54.4,136-54.4,244.8c0,54.4,18.1,96.1,54.4,125.1c-18.1-10.9-32.6-25.4-43.5-43.5
	c-25.4-29-38.1-56.2-38.1-81.6C174.4,206.1,201.6,124.5,256,52z"/>
</svg>
